<svg width="16.000000" height="12.000000" viewBox="0 0 16 12" fill="none" xmlns="http://www.w3.org/2000/svg" xmlns:xlink="http://www.w3.org/1999/xlink">
	<desc>
			Created with Pixso.
	</desc>
	<defs/>
	<path id="envelope (hover)" d="M14.5 0L1.5 0C0.67 0 0 0.67 0 1.5L0 10.5C0 11.32 0.67 12 1.5 12L14.5 12C15.32 12 16 11.32 16 10.5L16 1.5C16 0.67 15.32 0 14.5 0ZM14.5 1C14.56 1 14.63 1.01 14.69 1.03L8 6.83L1.3 1.03C1.36 1.01 1.43 1 1.5 1L14.5 1ZM14.5 11L1.5 11C1.22 11 1 10.77 1 10.5L1 2.09L7.67 7.87C7.76 7.95 7.88 8 8 8C8.11 8 8.23 7.95 8.32 7.87L15 2.09L15 10.5C15 10.77 14.77 11 14.5 11Z" fill="#757575" fill-opacity="1.000000" fill-rule="nonzero"/>
</svg>
