<svg width="10.000000" height="16.000000" viewBox="0 0 10 16" fill="none" xmlns="http://www.w3.org/2000/svg" xmlns:xlink="http://www.w3.org/1999/xlink">
	<desc>
			Created with Pixso.
	</desc>
	<defs/>
	<path d="M8.5 0L1.5 0C0.67 0 0 0.67 0 1.5L0 14.5C0 15.32 0.67 16 1.5 16L8.5 16C9.32 16 10 15.32 10 14.5L10 1.5C10 0.67 9.32 0 8.5 0ZM1.5 1L8.5 1C8.77 1 9 1.22 9 1.5L9 12L1 12L1 1.5C1 1.22 1.22 1 1.5 1ZM8.5 15L1.5 15C1.22 15 1 14.77 1 14.5L1 13L9 13L9 14.5C9 14.77 8.77 15 8.5 15Z" fill="#757575" fill-opacity="1.000000" fill-rule="nonzero"/>
	<path d="M2.35 13.73C2.54 13.92 2.54 14.21 2.35 14.39C2.15 14.58 1.84 14.58 1.64 14.39C1.45 14.21 1.45 13.92 1.64 13.73C1.84 13.55 2.15 13.55 2.35 13.73Z" fill="#757575" fill-opacity="1.000000" fill-rule="nonzero"/>
</svg>
